<mxfile host="app.diagrams.net" modified="2023-05-10T22:16:08.601Z" agent="Mozilla/5.0 (Windows NT 10.0; Win64; x64) AppleWebKit/537.36 (KHTML, like Gecko) Chrome/112.0.0.0 Safari/537.36" etag="kUypXsDI2tMVvIeQsccJ" version="21.2.9" type="onedrive">
  <diagram id="R2lEEEUBdFMjLlhIrx00" name="Page-1">
    <mxGraphModel dx="1916" dy="1127" grid="1" gridSize="10" guides="1" tooltips="1" connect="1" arrows="1" fold="1" page="1" pageScale="1" pageWidth="850" pageHeight="1100" math="0" shadow="0" extFonts="Permanent Marker^https://fonts.googleapis.com/css?family=Permanent+Marker">
      <root>
        <mxCell id="0" />
        <mxCell id="1" parent="0" />
        <mxCell id="KtDuC_H_nBhKlsHV4GcM-16" style="rounded=0;orthogonalLoop=1;jettySize=auto;html=1;exitX=0.5;exitY=0;exitDx=0;exitDy=0;entryX=0.5;entryY=1;entryDx=0;entryDy=0;endArrow=none;endFill=0;" parent="1" source="KtDuC_H_nBhKlsHV4GcM-1" target="KtDuC_H_nBhKlsHV4GcM-6" edge="1">
          <mxGeometry relative="1" as="geometry" />
        </mxCell>
        <mxCell id="KtDuC_H_nBhKlsHV4GcM-17" style="rounded=0;orthogonalLoop=1;jettySize=auto;html=1;exitX=0.5;exitY=0;exitDx=0;exitDy=0;entryX=0.5;entryY=1;entryDx=0;entryDy=0;endArrow=none;endFill=0;" parent="1" source="KtDuC_H_nBhKlsHV4GcM-1" target="KtDuC_H_nBhKlsHV4GcM-5" edge="1">
          <mxGeometry relative="1" as="geometry" />
        </mxCell>
        <mxCell id="KtDuC_H_nBhKlsHV4GcM-18" style="rounded=0;orthogonalLoop=1;jettySize=auto;html=1;exitX=0.5;exitY=0;exitDx=0;exitDy=0;entryX=0.5;entryY=1;entryDx=0;entryDy=0;endArrow=none;endFill=0;" parent="1" source="KtDuC_H_nBhKlsHV4GcM-1" target="KtDuC_H_nBhKlsHV4GcM-8" edge="1">
          <mxGeometry relative="1" as="geometry" />
        </mxCell>
        <mxCell id="KtDuC_H_nBhKlsHV4GcM-19" style="rounded=0;orthogonalLoop=1;jettySize=auto;html=1;exitX=0.5;exitY=0;exitDx=0;exitDy=0;entryX=0.5;entryY=1;entryDx=0;entryDy=0;endArrow=none;endFill=0;" parent="1" source="KtDuC_H_nBhKlsHV4GcM-1" target="9ZZZTJIZWkx0l0dEXj2N-21" edge="1">
          <mxGeometry relative="1" as="geometry">
            <mxPoint x="318.5" y="160" as="targetPoint" />
          </mxGeometry>
        </mxCell>
        <mxCell id="KtDuC_H_nBhKlsHV4GcM-30" style="rounded=0;orthogonalLoop=1;jettySize=auto;html=1;exitX=0.5;exitY=0;exitDx=0;exitDy=0;endArrow=none;endFill=0;entryX=0.5;entryY=1;entryDx=0;entryDy=0;" parent="1" source="KtDuC_H_nBhKlsHV4GcM-1" target="KtDuC_H_nBhKlsHV4GcM-29" edge="1">
          <mxGeometry relative="1" as="geometry" />
        </mxCell>
        <mxCell id="KtDuC_H_nBhKlsHV4GcM-1" value="Food" style="whiteSpace=wrap;html=1;align=center;" parent="1" vertex="1">
          <mxGeometry x="375" y="190" width="100" height="40" as="geometry" />
        </mxCell>
        <mxCell id="KtDuC_H_nBhKlsHV4GcM-20" style="rounded=0;orthogonalLoop=1;jettySize=auto;html=1;exitX=0.5;exitY=1;exitDx=0;exitDy=0;endArrow=none;endFill=0;entryX=0.5;entryY=0;entryDx=0;entryDy=0;" parent="1" source="KtDuC_H_nBhKlsHV4GcM-3" target="KtDuC_H_nBhKlsHV4GcM-10" edge="1">
          <mxGeometry relative="1" as="geometry">
            <Array as="points" />
          </mxGeometry>
        </mxCell>
        <mxCell id="KtDuC_H_nBhKlsHV4GcM-21" style="rounded=0;orthogonalLoop=1;jettySize=auto;html=1;exitX=0.5;exitY=1;exitDx=0;exitDy=0;endArrow=none;endFill=0;entryX=0.5;entryY=0;entryDx=0;entryDy=0;" parent="1" source="KtDuC_H_nBhKlsHV4GcM-3" target="KtDuC_H_nBhKlsHV4GcM-11" edge="1">
          <mxGeometry relative="1" as="geometry" />
        </mxCell>
        <mxCell id="9ZZZTJIZWkx0l0dEXj2N-9" style="rounded=0;orthogonalLoop=1;jettySize=auto;html=1;exitX=0.5;exitY=1;exitDx=0;exitDy=0;entryX=0.5;entryY=1;entryDx=0;entryDy=0;endArrow=none;endFill=0;" parent="1" source="KtDuC_H_nBhKlsHV4GcM-3" target="9ZZZTJIZWkx0l0dEXj2N-8" edge="1">
          <mxGeometry relative="1" as="geometry" />
        </mxCell>
        <mxCell id="KtDuC_H_nBhKlsHV4GcM-3" value="Usage" style="whiteSpace=wrap;html=1;align=center;" parent="1" vertex="1">
          <mxGeometry x="375" y="510" width="100" height="40" as="geometry" />
        </mxCell>
        <mxCell id="KtDuC_H_nBhKlsHV4GcM-22" style="rounded=0;orthogonalLoop=1;jettySize=auto;html=1;exitX=0.5;exitY=1;exitDx=0;exitDy=0;endArrow=none;endFill=0;entryX=0.5;entryY=0;entryDx=0;entryDy=0;" parent="1" source="KtDuC_H_nBhKlsHV4GcM-4" target="KtDuC_H_nBhKlsHV4GcM-13" edge="1">
          <mxGeometry relative="1" as="geometry">
            <Array as="points" />
          </mxGeometry>
        </mxCell>
        <mxCell id="KtDuC_H_nBhKlsHV4GcM-23" style="rounded=0;orthogonalLoop=1;jettySize=auto;html=1;exitX=0.5;exitY=1;exitDx=0;exitDy=0;endArrow=none;endFill=0;entryX=0.5;entryY=0;entryDx=0;entryDy=0;" parent="1" source="KtDuC_H_nBhKlsHV4GcM-4" target="KtDuC_H_nBhKlsHV4GcM-12" edge="1">
          <mxGeometry relative="1" as="geometry">
            <mxPoint x="836.5517634188761" y="560.134117075056" as="targetPoint" />
          </mxGeometry>
        </mxCell>
        <mxCell id="KtDuC_H_nBhKlsHV4GcM-4" value="Category" style="whiteSpace=wrap;html=1;align=center;" parent="1" vertex="1">
          <mxGeometry x="680" y="510" width="100" height="40" as="geometry" />
        </mxCell>
        <mxCell id="KtDuC_H_nBhKlsHV4GcM-5" value="FoodExp" style="ellipse;whiteSpace=wrap;html=1;align=center;" parent="1" vertex="1">
          <mxGeometry x="574" y="90" width="100" height="40" as="geometry" />
        </mxCell>
        <mxCell id="KtDuC_H_nBhKlsHV4GcM-6" value="CategoryID" style="ellipse;whiteSpace=wrap;html=1;align=center;" parent="1" vertex="1">
          <mxGeometry x="707.5" y="90" width="100" height="40" as="geometry" />
        </mxCell>
        <mxCell id="KtDuC_H_nBhKlsHV4GcM-8" value="FoodName" style="ellipse;whiteSpace=wrap;html=1;align=center;" parent="1" vertex="1">
          <mxGeometry x="175" y="90" width="100" height="40" as="geometry" />
        </mxCell>
        <mxCell id="KtDuC_H_nBhKlsHV4GcM-10" value="FoodID" style="ellipse;whiteSpace=wrap;html=1;align=center;" parent="1" vertex="1">
          <mxGeometry x="275" y="590" width="100" height="40" as="geometry" />
        </mxCell>
        <mxCell id="KtDuC_H_nBhKlsHV4GcM-11" value="RemovalMethod" style="ellipse;whiteSpace=wrap;html=1;align=center;" parent="1" vertex="1">
          <mxGeometry x="475" y="590" width="100" height="40" as="geometry" />
        </mxCell>
        <mxCell id="KtDuC_H_nBhKlsHV4GcM-12" value="FoodCategory" style="ellipse;whiteSpace=wrap;html=1;align=center;" parent="1" vertex="1">
          <mxGeometry x="625" y="590" width="100" height="40" as="geometry" />
        </mxCell>
        <mxCell id="KtDuC_H_nBhKlsHV4GcM-13" value="PrepMethod" style="ellipse;whiteSpace=wrap;html=1;align=center;" parent="1" vertex="1">
          <mxGeometry x="734" y="590" width="100" height="40" as="geometry" />
        </mxCell>
        <mxCell id="KtDuC_H_nBhKlsHV4GcM-26" style="rounded=0;orthogonalLoop=1;jettySize=auto;html=1;endArrow=none;endFill=0;entryX=0.5;entryY=0;entryDx=0;entryDy=0;exitX=0.5;exitY=1;exitDx=0;exitDy=0;" parent="1" source="KtDuC_H_nBhKlsHV4GcM-14" target="KtDuC_H_nBhKlsHV4GcM-1" edge="1">
          <mxGeometry relative="1" as="geometry">
            <mxPoint x="271" y="110" as="sourcePoint" />
          </mxGeometry>
        </mxCell>
        <mxCell id="KtDuC_H_nBhKlsHV4GcM-14" value="LocationID" style="ellipse;whiteSpace=wrap;html=1;align=center;" parent="1" vertex="1">
          <mxGeometry x="441" y="90" width="100" height="40" as="geometry" />
        </mxCell>
        <mxCell id="KtDuC_H_nBhKlsHV4GcM-29" value="FoodQuantity" style="ellipse;whiteSpace=wrap;html=1;align=center;" parent="1" vertex="1">
          <mxGeometry x="308" y="90" width="100" height="40" as="geometry" />
        </mxCell>
        <mxCell id="KtDuC_H_nBhKlsHV4GcM-33" value="Removing Food" style="shape=rhombus;perimeter=rhombusPerimeter;whiteSpace=wrap;html=1;align=center;" parent="1" vertex="1">
          <mxGeometry x="365" y="380" width="120" height="60" as="geometry" />
        </mxCell>
        <mxCell id="KtDuC_H_nBhKlsHV4GcM-35" value="" style="fontSize=12;html=1;endArrow=ERzeroToMany;endFill=1;rounded=0;entryX=0.5;entryY=0;entryDx=0;entryDy=0;exitX=0.5;exitY=1;exitDx=0;exitDy=0;edgeStyle=orthogonalEdgeStyle;" parent="1" source="KtDuC_H_nBhKlsHV4GcM-33" target="KtDuC_H_nBhKlsHV4GcM-3" edge="1">
          <mxGeometry width="100" height="100" relative="1" as="geometry">
            <mxPoint x="300" y="530" as="sourcePoint" />
            <mxPoint x="395" y="440" as="targetPoint" />
          </mxGeometry>
        </mxCell>
        <mxCell id="KtDuC_H_nBhKlsHV4GcM-36" value="" style="edgeStyle=orthogonalEdgeStyle;fontSize=12;html=1;endArrow=ERmandOne;rounded=0;entryX=0.5;entryY=1;entryDx=0;entryDy=0;exitX=0.5;exitY=0;exitDx=0;exitDy=0;" parent="1" source="KtDuC_H_nBhKlsHV4GcM-33" target="KtDuC_H_nBhKlsHV4GcM-1" edge="1">
          <mxGeometry width="100" height="100" relative="1" as="geometry">
            <mxPoint x="351" y="200" as="sourcePoint" />
            <mxPoint x="432" y="160" as="targetPoint" />
          </mxGeometry>
        </mxCell>
        <mxCell id="KtDuC_H_nBhKlsHV4GcM-37" value="Food/Cat Ref" style="shape=rhombus;perimeter=rhombusPerimeter;whiteSpace=wrap;html=1;align=center;" parent="1" vertex="1">
          <mxGeometry x="669.5" y="375" width="120" height="60" as="geometry" />
        </mxCell>
        <mxCell id="KtDuC_H_nBhKlsHV4GcM-38" value="" style="edgeStyle=orthogonalEdgeStyle;fontSize=12;html=1;endArrow=ERmany;rounded=0;exitX=0.5;exitY=1;exitDx=0;exitDy=0;entryX=0.5;entryY=0;entryDx=0;entryDy=0;" parent="1" source="KtDuC_H_nBhKlsHV4GcM-37" target="KtDuC_H_nBhKlsHV4GcM-4" edge="1">
          <mxGeometry width="100" height="100" relative="1" as="geometry">
            <mxPoint x="899.5" y="475" as="sourcePoint" />
            <mxPoint x="889.5" y="505" as="targetPoint" />
          </mxGeometry>
        </mxCell>
        <mxCell id="KtDuC_H_nBhKlsHV4GcM-40" value="" style="fontSize=12;html=1;endArrow=ERmandOne;rounded=0;entryX=0.75;entryY=1;entryDx=0;entryDy=0;edgeStyle=orthogonalEdgeStyle;exitX=0.5;exitY=0;exitDx=0;exitDy=0;" parent="1" source="KtDuC_H_nBhKlsHV4GcM-37" target="KtDuC_H_nBhKlsHV4GcM-1" edge="1">
          <mxGeometry width="100" height="100" relative="1" as="geometry">
            <mxPoint x="432" y="370" as="sourcePoint" />
            <mxPoint x="221" y="280" as="targetPoint" />
          </mxGeometry>
        </mxCell>
        <mxCell id="9ZZZTJIZWkx0l0dEXj2N-15" style="rounded=0;orthogonalLoop=1;jettySize=auto;html=1;exitX=0.5;exitY=1;exitDx=0;exitDy=0;entryX=0.5;entryY=0;entryDx=0;entryDy=0;endArrow=none;endFill=0;" parent="1" source="9ZZZTJIZWkx0l0dEXj2N-5" target="9ZZZTJIZWkx0l0dEXj2N-11" edge="1">
          <mxGeometry relative="1" as="geometry" />
        </mxCell>
        <mxCell id="9ZZZTJIZWkx0l0dEXj2N-5" value="Location" style="whiteSpace=wrap;html=1;align=center;" parent="1" vertex="1">
          <mxGeometry x="71" y="510" width="100" height="40" as="geometry" />
        </mxCell>
        <mxCell id="9ZZZTJIZWkx0l0dEXj2N-10" style="rounded=0;orthogonalLoop=1;jettySize=auto;html=1;exitX=0.5;exitY=0;exitDx=0;exitDy=0;endArrow=none;endFill=0;" parent="1" source="9ZZZTJIZWkx0l0dEXj2N-7" target="KtDuC_H_nBhKlsHV4GcM-4" edge="1">
          <mxGeometry relative="1" as="geometry" />
        </mxCell>
        <mxCell id="9ZZZTJIZWkx0l0dEXj2N-7" value="CategoryID" style="ellipse;whiteSpace=wrap;html=1;align=center;fontStyle=4;" parent="1" vertex="1">
          <mxGeometry x="680" y="630" width="100" height="40" as="geometry" />
        </mxCell>
        <mxCell id="9ZZZTJIZWkx0l0dEXj2N-8" value="UsageID" style="ellipse;whiteSpace=wrap;html=1;align=center;fontStyle=4;" parent="1" vertex="1">
          <mxGeometry x="375" y="630" width="100" height="40" as="geometry" />
        </mxCell>
        <mxCell id="9ZZZTJIZWkx0l0dEXj2N-11" value="LocationID" style="ellipse;whiteSpace=wrap;html=1;align=center;fontStyle=4;" parent="1" vertex="1">
          <mxGeometry x="16" y="590" width="100" height="40" as="geometry" />
        </mxCell>
        <mxCell id="9ZZZTJIZWkx0l0dEXj2N-16" style="rounded=0;orthogonalLoop=1;jettySize=auto;html=1;exitX=0.5;exitY=0;exitDx=0;exitDy=0;endArrow=none;endFill=0;entryX=0.5;entryY=1;entryDx=0;entryDy=0;" parent="1" source="9ZZZTJIZWkx0l0dEXj2N-14" edge="1" target="9ZZZTJIZWkx0l0dEXj2N-5">
          <mxGeometry relative="1" as="geometry">
            <mxPoint x="120" y="560" as="targetPoint" />
          </mxGeometry>
        </mxCell>
        <mxCell id="9ZZZTJIZWkx0l0dEXj2N-14" value="LocationName" style="ellipse;whiteSpace=wrap;html=1;align=center;" parent="1" vertex="1">
          <mxGeometry x="126" y="590" width="100" height="40" as="geometry" />
        </mxCell>
        <mxCell id="9ZZZTJIZWkx0l0dEXj2N-18" value="" style="fontSize=12;html=1;endArrow=ERone;endFill=1;rounded=0;edgeStyle=orthogonalEdgeStyle;entryX=0.5;entryY=0;entryDx=0;entryDy=0;exitX=0.5;exitY=1;exitDx=0;exitDy=0;" parent="1" source="9ZZZTJIZWkx0l0dEXj2N-19" target="9ZZZTJIZWkx0l0dEXj2N-5" edge="1">
          <mxGeometry width="100" height="100" relative="1" as="geometry">
            <mxPoint x="121" y="420" as="sourcePoint" />
            <mxPoint x="206" y="490" as="targetPoint" />
          </mxGeometry>
        </mxCell>
        <mxCell id="9ZZZTJIZWkx0l0dEXj2N-19" value="Relationship" style="shape=rhombus;perimeter=rhombusPerimeter;whiteSpace=wrap;html=1;align=center;" parent="1" vertex="1">
          <mxGeometry x="61" y="380" width="120" height="60" as="geometry" />
        </mxCell>
        <mxCell id="9ZZZTJIZWkx0l0dEXj2N-20" value="" style="fontSize=12;html=1;endArrow=ERone;endFill=1;rounded=0;entryX=0.25;entryY=1;entryDx=0;entryDy=0;exitX=0.5;exitY=0;exitDx=0;exitDy=0;edgeStyle=orthogonalEdgeStyle;" parent="1" source="9ZZZTJIZWkx0l0dEXj2N-19" target="KtDuC_H_nBhKlsHV4GcM-1" edge="1">
          <mxGeometry width="100" height="100" relative="1" as="geometry">
            <mxPoint x="211" y="360" as="sourcePoint" />
            <mxPoint x="311" y="260" as="targetPoint" />
          </mxGeometry>
        </mxCell>
        <mxCell id="9ZZZTJIZWkx0l0dEXj2N-21" value="FoodID" style="ellipse;whiteSpace=wrap;html=1;align=center;fontStyle=4;" parent="1" vertex="1">
          <mxGeometry x="42" y="90" width="100" height="40" as="geometry" />
        </mxCell>
        <mxCell id="9xyU2YzR7Pa1OuIfRrfN-3" style="rounded=0;orthogonalLoop=1;jettySize=auto;html=1;exitX=0.5;exitY=0;exitDx=0;exitDy=0;entryX=0.5;entryY=1;entryDx=0;entryDy=0;endArrow=none;endFill=0;" edge="1" parent="1" source="9xyU2YzR7Pa1OuIfRrfN-1" target="KtDuC_H_nBhKlsHV4GcM-3">
          <mxGeometry relative="1" as="geometry" />
        </mxCell>
        <mxCell id="9xyU2YzR7Pa1OuIfRrfN-1" value="Date" style="ellipse;whiteSpace=wrap;html=1;align=center;" vertex="1" parent="1">
          <mxGeometry x="300" y="670" width="100" height="40" as="geometry" />
        </mxCell>
        <mxCell id="9xyU2YzR7Pa1OuIfRrfN-4" style="rounded=0;orthogonalLoop=1;jettySize=auto;html=1;exitX=0.5;exitY=0;exitDx=0;exitDy=0;entryX=0.5;entryY=1;entryDx=0;entryDy=0;endArrow=none;endFill=0;" edge="1" parent="1" source="9xyU2YzR7Pa1OuIfRrfN-2" target="KtDuC_H_nBhKlsHV4GcM-3">
          <mxGeometry relative="1" as="geometry">
            <mxPoint x="421" y="550" as="targetPoint" />
          </mxGeometry>
        </mxCell>
        <mxCell id="9xyU2YzR7Pa1OuIfRrfN-2" value="Quantity" style="ellipse;whiteSpace=wrap;html=1;align=center;" vertex="1" parent="1">
          <mxGeometry x="441" y="670" width="100" height="40" as="geometry" />
        </mxCell>
      </root>
    </mxGraphModel>
  </diagram>
</mxfile>
